<?xml version="1.0" encoding="UTF-8" standalone="no"?>
<!DOCTYPE svg PUBLIC "-//W3C//DTD SVG 1.1//EN"
"http://www.w3.org/Graphics/SVG/1.1/DTD/svg11.dtd">
<svg viewBox="0 0 934 1209" version="1.1" xmlns="http://www.w3.org/2000/svg" xmlns:xlink="http://www.w3.org/1999/xlink">
<defs>
<style type="text/css"><![CDATA[
.g0_3{
fill: none;
stroke: #000;
stroke-width: 1.527;
stroke-miterlimit: 10;
}
.g1_3{
fill: none;
stroke: #000;
stroke-width: 0.763;
stroke-miterlimit: 10;
}
.g2_3{
fill: #000;
}
.g3_3{
fill: none;
stroke: #000;
stroke-width: 1.222;
stroke-miterlimit: 10;
}
.g4_3{
fill: #D9D9D9;
}
.g5_3{
fill: none;
stroke: #000;
stroke-width: 0.762;
stroke-miterlimit: 10;
}
]]></style>
</defs>
<path d="M54.6,73.3H880.4" class="g0_3"/>
<path d="M605,72.9V89m0,-.8v22.2" class="g1_3"/>
<path d="M55,128.3h55V110H55v18.3Z" class="g2_3"/>
<path d="M54.6,110H880.4" class="g3_3"/>
<path d="M54.6,128.3H880.4M737,154.3h15.3V139H737v15.3ZM319,187.9H440V165H319v22.9Zm418,30.6h15.3V203.2H737v15.3Zm-55.4,10.7H836.4M681.6,252.1H836.4M682,228.8v23.7M835.6,229.2h44.8m-44.8,22.9h44.8M880,228.8v23.7m-198.4,4.2H836.4M681.6,279.6H836.4M682,256.3V280M835.6,256.7h44.8m-44.8,22.9h44.8M880,256.3V280" class="g1_3"/>
<path d="M682,307.1H836V284.2H682v22.9Z" class="g4_3"/>
<path d="M681.6,284.2H836.4M681.6,307.1H836.4M682,283.8v23.7" class="g1_3"/>
<path d="M836,307.1h44V284.2H836v22.9Z" class="g4_3"/>
<path d="M835.6,284.2h44.8m-44.8,22.9h44.8M880,283.8v23.7" class="g1_3"/>
<path d="M682,334.6H836V311.7H682v22.9Z" class="g4_3"/>
<path d="M681.6,311.7H836.4M681.6,334.6H836.4M682,311.3V335" class="g1_3"/>
<path d="M836,334.6h44V311.7H836v22.9Z" class="g4_3"/>
<path d="M835.6,311.7h44.8m-44.8,22.9h44.8M880,311.3V335m-198.4,4.2H836.4M681.6,362.1H836.4M682,338.8v23.7M835.6,339.2h44.8m-44.8,22.9h44.8M880,338.8v23.7m-198.4,4.2H836.4M681.6,389.6H836.4M682,366.3V390M835.6,366.7h44.8m-44.8,22.9h44.8M880,366.3V390M681.6,403.3H836.4m-154.8,23H836.4M682,402.9v23.7M835.6,403.3h44.8m-44.8,23h44.8M880,402.9v23.7M681.6,440H836.4M681.6,462.9H836.4M682,439.6v23.7M835.6,440h44.8m-44.8,22.9h44.8M880,439.6v23.7m-198.4,4.2H836.4M681.6,490.4H836.4M682,467.1v23.7M835.6,467.5h44.8m-44.8,22.9h44.8M880,467.1v23.7M681.6,504.2H836.4M681.6,527.1H836.4M682,503.8v23.7M835.6,504.2h44.8m-44.8,22.9h44.8M880,503.8v23.7" class="g1_3"/>
<path d="M55,559.2h55V540.8H55v18.4Z" class="g2_3"/>
<path d="M54.6,540.8H880.4" class="g3_3"/>
<path d="M54.6,559.2H880.4M99,614.9h15.3V599.7H99v15.2Zm297,3.9H660v-23H396v23Zm308,0H869v-23H704v23Zm-17.8,13.7H665.3m20.9,21.4H665.3m22,.6V631.9m-23.1,22.6V631.9" class="g1_3"/>
<path d="M664.2,631.9v22.4m-.3,-.4h22.3m-20.9,0h22.4m-.4,.4V631.9m0,22.6V632.1m.4,.4H665.3m20.9,0H663.9m.3,-.4v22.4" class="g5_3"/>
<path d="M719.2,632.5H698.3m20.9,21.4H698.3m22,.6V631.9m-23.1,22.6V631.9" class="g1_3"/>
<path d="M697.2,631.9v22.4m-.3,-.4h22.3m-20.9,0h22.4m-.4,.4V631.9m0,22.6V632.1m.4,.4H698.3m20.9,0H696.9m.3,-.4v22.4" class="g5_3"/>
<path d="M752.2,632.5H731.3m20.9,21.4H731.3m22,.6V631.9m-23.1,22.6V631.9" class="g1_3"/>
<path d="M730.2,631.9v22.4m-.3,-.4h22.3m-20.9,0h22.4m-.4,.4V631.9m0,22.6V632.1m.4,.4H731.3m20.9,0H729.9m.3,-.4v22.4" class="g5_3"/>
<path d="M785.2,632.5H764.3m20.9,21.4H764.3m22,.6V631.9m-23.1,22.6V631.9" class="g1_3"/>
<path d="M763.2,631.9v22.4m-.3,-.4h22.3m-20.9,0h22.4m-.4,.4V631.9m0,22.6V632.1m.4,.4H764.3m20.9,0H762.9m.3,-.4v22.4" class="g5_3"/>
<path d="M818.2,632.5H797.3m20.9,21.4H797.3m22,.6V631.9m-23.1,22.6V631.9" class="g1_3"/>
<path d="M796.2,631.9v22.4m-.3,-.4h22.3m-20.9,0h22.4m-.4,.4V631.9m0,22.6V632.1m.4,.4H797.3m20.9,0H795.9m.3,-.4v22.4" class="g5_3"/>
<path d="M99,679.1h15.3V663.8H99v15.3Z" class="g1_3"/>
<path d="M55,705.8h55V687.5H55v18.3Z" class="g2_3"/>
<path d="M54.6,687.5H880.4" class="g3_3"/>
<path d="M54.6,705.8H880.4M165,815.8H495V751.7H165v64.1Zm0,41.3H286V834.2H165v22.9ZM594,774.6H869V751.7H594v22.9Zm0,36.7H869v-23H594v23Zm55,45.8H869V834.2H649v22.9Zm231,13.7H55m786.5,26h15.3V881.5H841.5v15.3ZM187,930.4H583V907.5H187v22.9Zm495,0H869V907.5H682v22.9ZM187,967.1H583V944.2H187v22.9Zm495,0H814V944.2H682v22.9Zm-495,36.7H583v-23H187v23Zm495,0H869v-23H682v23Zm-495,36.6H583v-22.9H187v22.9Zm495,0H869v-22.9H682v22.9Zm-495,36.7H462v-22.9H187v22.9Zm341,0h55v-22.9H528v22.9Zm154,0H869v-22.9H682v22.9Z" class="g1_3"/>
<path d="M54.6,1090.8H99.4m-.8,0H880.4" class="g0_3"/>
</svg>