<?xml version="1.0" encoding="UTF-8" standalone="no"?>
<!DOCTYPE svg PUBLIC "-//W3C//DTD SVG 1.1//EN"
"http://www.w3.org/Graphics/SVG/1.1/DTD/svg11.dtd">
<svg viewBox="0 0 935 1210" version="1.1" xmlns="http://www.w3.org/2000/svg" xmlns:xlink="http://www.w3.org/1999/xlink">
<defs>
<style type="text/css"><![CDATA[
.g0_3{
fill: none;
stroke: #000;
stroke-width: 1.527;
stroke-miterlimit: 10;
}
.g1_3{
fill: none;
stroke: #000;
stroke-width: 0.763;
stroke-miterlimit: 10;
}
.g2_3{
fill: #000;
}
.g3_3{
fill: none;
stroke: #000;
stroke-width: 1.145;
stroke-miterlimit: 10;
}
.g4_3{
fill: #FFF;
}
.g5_3{
fill: #D9D9D9;
}
.g6_3{
fill: none;
stroke: #000;
stroke-width: 0.762;
stroke-miterlimit: 10;
}
]]></style>
</defs>
<path d="M54.6,55H583.4" class="g0_3"/>
<path d="M583,54.2V70.7m0,-.8V92" class="g1_3"/>
<path d="M582.6,55H880.4" class="g0_3"/>
<path d="M55,110h55V91.7H55V110Z" class="g2_3"/>
<path d="M54.6,91.7H880.4" class="g3_3"/>
<path d="M54.6,110H880.4" class="g1_3"/>
<path d="M740.7,136h15.2V120.7H740.7V136Z" class="g4_3"/>
<path d="M740.7,136h15.2V120.7H740.7V136ZM319,174.2H440V146.7H319v27.5Zm362.6,9.1H836.4M681.6,210.8H836.4M682,182.9v28.3M835.6,183.3h44.8m-44.8,27.5h44.8M880,182.9v28.3m-198.4,4.2H836.4M681.6,242.9H836.4M682,215v28.3M835.6,215.4h44.8m-44.8,27.5h44.8M880,215v28.3" class="g1_3"/>
<path d="M682,275H836V247.5H682V275Z" class="g5_3"/>
<path d="M681.6,247.5H836.4M681.6,275H836.4M682,247.1v28.3" class="g1_3"/>
<path d="M836,275h44V247.5H836V275Z" class="g5_3"/>
<path d="M835.6,247.5h44.8M835.6,275h44.8M880,247.1v28.3" class="g1_3"/>
<path d="M682,307.1H836V279.6H682v27.5Z" class="g5_3"/>
<path d="M681.6,279.6H836.4M681.6,307.1H836.4M682,279.2v28.3" class="g1_3"/>
<path d="M836,307.1h44V279.6H836v27.5Z" class="g5_3"/>
<path d="M835.6,279.6h44.8m-44.8,27.5h44.8M880,279.2v28.3m-198.4,4.2H836.4M681.6,339.2H836.4M682,311.3v28.3M835.6,311.7h44.8m-44.8,27.5h44.8M880,311.3v28.3m-198.4,4.2H836.4M681.6,371.3H836.4M682,343.4v28.2M835.6,343.8h44.8m-44.8,27.5h44.8M880,343.4v28.2M681.6,385H836.4M681.6,412.5H836.4M682,384.6v28.3M835.6,385h44.8m-44.8,27.5h44.8M880,384.6v28.3m-198.4,4.2H836.4M681.6,444.6H836.4M682,416.7V445M835.6,417.1h44.8m-44.8,27.5h44.8M880,416.7V445m-198.4,4.2H836.4M681.6,476.7H836.4M682,448.8v28.3M835.6,449.2h44.8m-44.8,27.5h44.8M880,448.8v28.3M681.6,490.4H836.4M681.6,517.9H836.4M682,490v28.3M835.6,490.4h44.8m-44.8,27.5h44.8M880,490v28.3" class="g1_3"/>
<path d="M682,577.5H836V550H682v27.5Z" class="g5_3"/>
<path d="M681.6,550H836.4M681.6,577.5H836.4M682,549.6v28.3" class="g1_3"/>
<path d="M836,577.5h44V550H836v27.5Z" class="g5_3"/>
<path d="M835.6,550h44.8m-44.8,27.5h44.8M880,549.6v28.3" class="g1_3"/>
<path d="M682,632.5H836V605H682v27.5Z" class="g5_3"/>
<path d="M681.6,605H836.4M681.6,632.5H836.4M682,604.6v28.3" class="g1_3"/>
<path d="M836,632.5h44V605H836v27.5Z" class="g5_3"/>
<path d="M835.6,605h44.8m-44.8,27.5h44.8M880,604.6v28.3" class="g1_3"/>
<path d="M55,660h55V641.7H55V660Z" class="g2_3"/>
<path d="M54.6,641.7H880.4" class="g3_3"/>
<path d="M54.6,660H880.4" class="g1_3"/>
<path d="M77,713.5H92.3V698.2H77v15.3Z" class="g4_3"/>
<path d="M77,713.5H92.3V698.2H77v15.3ZM363,715H627V687.5H363V715Zm297,0H836V687.5H660V715Z" class="g1_3"/>
<path d="M627,747.1h23.1V724.2H627v22.9Z" class="g4_3"/>
<path d="M649,724.2H628.1M649,747.1H628.1m22,-.9V725.1M627,746.2V725.1" class="g1_3"/>
<path d="M627,725.1v22.4m-.4,-.4H649m-20.9,0h22.4m-.4,.4V725.1m0,21.1V723.8m.4,.4H628.1m20.9,0H626.6m.4,-.4v22.4" class="g6_3"/>
<path d="M660,747.1h23.1V724.2H660v22.9Z" class="g4_3"/>
<path d="M682,724.2H661.1M682,747.1H661.1m22,-.9V725.1M660,746.2V725.1" class="g1_3"/>
<path d="M660,725.1v22.4m-.4,-.4H682m-20.9,0h22.4m-.4,.4V725.1m0,21.1V723.8m.4,.4H661.1m20.9,0H659.6m.4,-.4v22.4" class="g6_3"/>
<path d="M693,747.1h23.1V724.2H693v22.9Z" class="g4_3"/>
<path d="M715,724.2H694.1M715,747.1H694.1m22,-.9V725.1M693,746.2V725.1" class="g1_3"/>
<path d="M693,725.1v22.4m-.4,-.4H715m-20.9,0h22.4m-.4,.4V725.1m0,21.1V723.8m.4,.4H694.1m20.9,0H692.6m.4,-.4v22.4" class="g6_3"/>
<path d="M726,747.1h23.1V724.2H726v22.9Z" class="g4_3"/>
<path d="M748,724.2H727.1M748,747.1H727.1m22,-.9V725.1M726,746.2V725.1" class="g1_3"/>
<path d="M726,725.1v22.4m-.4,-.4H748m-20.9,0h22.4m-.4,.4V725.1m0,21.1V723.8m.4,.4H727.1m20.9,0H725.6m.4,-.4v22.4" class="g6_3"/>
<path d="M759,747.1h23.1V724.2H759v22.9Z" class="g4_3"/>
<path d="M781,724.2H760.1M781,747.1H760.1m22,-.9V725.1M759,746.2V725.1" class="g1_3"/>
<path d="M759,725.1v22.4m-.4,-.4H781m-20.9,0h22.4m-.4,.4V725.1m0,21.1V723.8m.4,.4H760.1m20.9,0H758.6m.4,-.4v22.4" class="g6_3"/>
<path d="M77,763.9H92.3V748.6H77v15.3Z" class="g4_3"/>
<path d="M77,763.9H92.3V748.6H77v15.3Z" class="g1_3"/>
<path d="M55,788.3h55V770H55v18.3Z" class="g2_3"/>
<path d="M54.6,770H880.4" class="g3_3"/>
<path d="M54.6,788.3H880.4" class="g1_3"/>
<path d="M220,889.2H539V825H220v64.2Z" class="g4_3"/>
<path d="M242,825H517M242,889.2H517M539,847v20.2M220,847v20.2" class="g1_3"/>
<path d="M220,867.2v22.3m-.4,-.3H242m275,0h22.4m-.4,.3V867.2M539,847V824.6m.4,.4H517m-275,0H219.6m.4,-.4V847" class="g6_3"/>
<path d="M220,925.8H363V898.3H220v27.5Z" class="g4_3"/>
<path d="M220,925.8H363V898.3H220v27.5ZM649,852.5H869V825H649v27.5Zm0,36.7H869V861.7H649v27.5Zm55,36.6H869V898.3H704v27.5ZM54.6,935H880.4" class="g1_3"/>
<path d="M847,956.4h15.3V941.1H847v15.3Z" class="g4_3"/>
<path d="M847,956.4h15.3V941.1H847v15.3ZM187,999.2H583V971.7H187v27.5Zm495,0H869V971.7H682v27.5Z" class="g1_3"/>
<path d="M187,1035.8H583v-27.5H187v27.5Z" class="g4_3"/>
<path d="M209,1008.3H561m-352,27.5H561m22,-5.5v-16.5m-396,16.5v-16.5" class="g1_3"/>
<path d="M187,1013.8v22.4m-.4,-.4H209m352,0h22.4m-.4,.4v-22.4m0,16.5V1008m.4,.3H561m-352,0H186.6m.4,-.3v22.3" class="g6_3"/>
<path d="M682,1035.8H814v-27.5H682v27.5Z" class="g4_3"/>
<path d="M704,1008.3h88m-88,27.5h88m22,-5.5v-16.5m-132,16.5v-16.5" class="g1_3"/>
<path d="M682,1013.8v22.4m-.4,-.4H704m88,0h22.4m-.4,.4v-22.4m0,16.5V1008m.4,.3H792m-88,0H681.6m.4,-.3v22.3" class="g6_3"/>
<path d="M187,1072.5H583V1045H187v27.5Zm495,0H869V1045H682v27.5Zm-495,36.7H583v-27.5H187v27.5Zm495,0H869v-27.5H682v27.5Zm-495,36.6H462v-27.5H187v27.5Zm341,0h55v-27.5H528v27.5Zm154,0H869v-27.5H682v27.5Z" class="g1_3"/>
<path d="M54.6,1155H781.4m-.8,0h99.8" class="g0_3"/>
</svg>