<?xml version="1.0" encoding="UTF-8" standalone="no"?>
<!DOCTYPE svg PUBLIC "-//W3C//DTD SVG 1.1//EN"
"http://www.w3.org/Graphics/SVG/1.1/DTD/svg11.dtd">
<svg viewBox="0 0 934 1209" version="1.1" xmlns="http://www.w3.org/2000/svg" xmlns:xlink="http://www.w3.org/1999/xlink">
<defs>
<style type="text/css"><![CDATA[
.g0_5{
fill: none;
stroke: #000;
stroke-width: 3.055;
stroke-miterlimit: 10;
}
.g1_5{
fill: #000;
}
.g2_5{
fill: none;
stroke: #000;
stroke-width: 1.527;
stroke-miterlimit: 10;
stroke-dasharray: 7,4;
}
.g3_5{
fill: none;
stroke: #000;
stroke-width: 1.527;
stroke-miterlimit: 10;
}
.g4_5{
fill: none;
stroke: #000;
stroke-width: 0.763;
stroke-miterlimit: 10;
}
.g5_5{
fill: #FFF;
}
.g6_5{
fill: none;
stroke: #000;
stroke-width: 0.763;
stroke-linecap: square;
stroke-miterlimit: 10;
}
]]></style>
</defs>
<path d="M54.6,55H880.4M54.6,119.2H880.4" class="g0_5"/>
<path d="M55,585.1H91.7V548.5H55v36.6Z" class="g1_5"/>
<path d="M54.6,834.2H880.4" class="g2_5"/>
<path d="M54.6,907.5H187.8M759,852.1v28.3M187,852.1v28.3m-.8,27.1H759.8M759,879.6v28.7M187,879.6v28.7M759,870.4v37.9" class="g3_5"/>
<path d="M328.5,907.5H660.4M330,906v39.7m-1.5,16.8H660.4M330,942.6V964M658.5,907.5H825.4m-166.9,55H825.4M660,906v58M824.6,907.5h56.9m-56.9,55h56.9M880,906v58" class="g0_5"/>
<path d="M825,906v58M54.6,962.5H66.4M54.6,980.8H66.4m-.8,-18.3H330.4M65.6,980.8H330.4M54.6,1026.7H187.4" class="g4_5"/>
<path d="M95.3,1003.7c0,-5,-4.1,-9.1,-9.1,-9.1c-5.1,0,-9.2,4.1,-9.2,9.1c0,5.1,4.1,9.2,9.2,9.2c5,0,9.1,-4.1,9.1,-9.2Z" class="g5_5"/>
<path d="M95.3,1003.7c0,-5,-4.1,-9.1,-9.1,-9.1c-5.1,0,-9.2,4.1,-9.2,9.1c0,5.1,4.1,9.2,9.2,9.2c5,0,9.1,-4.1,9.1,-9.2" class="g6_5"/>
<path d="M54.6,1072.5H187.4" class="g4_5"/>
<path d="M95.3,1052.6c0,-5,-4.1,-9.1,-9.1,-9.1c-5.1,0,-9.2,4.1,-9.2,9.1c0,5.1,4.1,9.2,9.2,9.2c5,0,9.1,-4.1,9.1,-9.2Z" class="g5_5"/>
<path d="M95.3,1052.6c0,-5,-4.1,-9.1,-9.1,-9.1c-5.1,0,-9.2,4.1,-9.2,9.1c0,5.1,4.1,9.2,9.2,9.2c5,0,9.1,-4.1,9.1,-9.2" class="g6_5"/>
<path d="M186.6,1026.7H330.4M187,980.4V1027" class="g4_5"/>
<path d="M227.3,1006.8c0,-5.1,-4.1,-9.2,-9.1,-9.2c-5.1,0,-9.2,4.1,-9.2,9.2c0,5.1,4.1,9.2,9.2,9.2c5,0,9.1,-4.1,9.1,-9.2Z" class="g5_5"/>
<path d="M227.3,1006.8c0,-5.1,-4.1,-9.2,-9.1,-9.2c-5.1,0,-9.2,4.1,-9.2,9.2c0,5.1,4.1,9.2,9.2,9.2c5,0,9.1,-4.1,9.1,-9.2" class="g6_5"/>
<path d="M186.6,1072.5H330.4M187,1026.3v46.6" class="g4_5"/>
<path d="M227.3,1052.6c0,-5,-4.1,-9.1,-9.1,-9.1c-5.1,0,-9.2,4.1,-9.2,9.1c0,5.1,4.1,9.2,9.2,9.2c5,0,9.1,-4.1,9.1,-9.2Z" class="g5_5"/>
<path d="M227.3,1052.6c0,-5,-4.1,-9.1,-9.1,-9.1c-5.1,0,-9.2,4.1,-9.2,9.1c0,5.1,4.1,9.2,9.2,9.2c5,0,9.1,-4.1,9.1,-9.2" class="g6_5"/>
<path d="M329.6,1072.5h22.8M330,962.1v110.8m21.6,-73.7H880.4m-528.8,36.6H880.4m-528.8,36.7H880.4" class="g4_5"/>
</svg>