<?xml version="1.0" encoding="UTF-8" standalone="no"?>
<!DOCTYPE svg PUBLIC "-//W3C//DTD SVG 1.1//EN"
"http://www.w3.org/Graphics/SVG/1.1/DTD/svg11.dtd">
<svg viewBox="0 0 933 1209" version="1.1" xmlns="http://www.w3.org/2000/svg" xmlns:xlink="http://www.w3.org/1999/xlink">
<defs>
<style type="text/css"><![CDATA[
.g0_1{
fill: none;
stroke: #000;
stroke-width: 0.763;
stroke-miterlimit: 10;
}
.g1_1{
fill: none;
stroke: #000;
stroke-width: 0.762;
stroke-miterlimit: 10;
}
.g2_1{
fill: #000;
}
.g3_1{
fill: none;
stroke: #000;
stroke-width: 1.222;
stroke-miterlimit: 10;
}
.g4_1{
fill: none;
stroke: #000;
stroke-width: 1.145;
stroke-miterlimit: 10;
}
.g5_1{
fill: none;
stroke: #000;
stroke-width: 1.527;
stroke-miterlimit: 10;
}
]]></style>
</defs>
<path d="M55,357.5H605V91.7H55V357.5ZM253,100.8H238.7M253,128.3H238.7m22,-5.5V106.3M231,122.8V106.3" class="g0_1"/>
<path d="M231,106.3v22.4m-.4,-.4H253m-14.3,0h22.4m-.4,.4V106.3m0,16.5V100.5m.4,.3H238.7m14.3,0H230.6m.4,-.3v22.3" class="g1_1"/>
<path d="M294.5,100.8H280.2m14.3,27.5H280.2m22,-5.5V106.3m-29.7,16.5V106.3" class="g0_1"/>
<path d="M272.5,106.3v22.4m-.4,-.4h22.4m-14.3,0h22.3m-.3,.4V106.3m0,16.5V100.5m.3,.3H280.2m14.3,0H272.1m.4,-.3v22.3" class="g1_1"/>
<path d="M353.3,100.8H339m14.3,27.5H339m22,-5.5V106.3m-29.7,16.5V106.3" class="g0_1"/>
<path d="M331.3,106.3v22.4m-.4,-.4h22.4m-14.3,0h22.4m-.4,.4V106.3m0,16.5V100.5m.4,.3H339m14.3,0H330.9m.4,-.3v22.3" class="g1_1"/>
<path d="M391.9,100.8H377.6m14.3,27.5H377.6m22,-5.5V106.3m-29.7,16.5V106.3" class="g0_1"/>
<path d="M369.9,106.3v22.4m-.3,-.4h22.3m-14.3,0H400m-.4,.4V106.3m0,16.5V100.5m.4,.3H377.6m14.3,0H369.6m.3,-.3v22.3" class="g1_1"/>
<path d="M430.8,100.8H416.5m14.3,27.5H416.5m22,-5.5V106.3m-29.7,16.5V106.3" class="g0_1"/>
<path d="M408.8,106.3v22.4m-.4,-.4h22.4m-14.3,0h22.4m-.4,.4V106.3m0,16.5V100.5m.4,.3H416.5m14.3,0H408.4m.4,-.3v22.3" class="g1_1"/>
<path d="M469.6,100.8H455.3m14.3,27.5H455.3m22,-5.5V106.3m-29.7,16.5V106.3" class="g0_1"/>
<path d="M447.6,106.3v22.4m-.4,-.4h22.4m-14.3,0h22.3m-.3,.4V106.3m0,16.5V100.5m.3,.3H455.3m14.3,0H447.2m.4,-.3v22.3" class="g1_1"/>
<path d="M508.5,100.8H494.2m14.3,27.5H494.2m22,-5.5V106.3m-29.7,16.5V106.3" class="g0_1"/>
<path d="M486.5,106.3v22.4m-.4,-.4h22.4m-14.3,0h22.3m-.3,.4V106.3m0,16.5V100.5m.3,.3H494.2m14.3,0H486.1m.4,-.3v22.3" class="g1_1"/>
<path d="M547.2,100.8H532.9m14.3,27.5H532.9m22,-5.5V106.3m-29.7,16.5V106.3" class="g0_1"/>
<path d="M525.2,106.3v22.4m-.4,-.4h22.4m-14.3,0h22.4m-.4,.4V106.3m0,16.5V100.5m.4,.3H532.9m14.3,0H524.8m.4,-.3v22.3" class="g1_1"/>
<path d="M586.3,100.8H572m14.3,27.5H572m22,-5.5V106.3m-29.7,16.5V106.3" class="g0_1"/>
<path d="M564.3,106.3v22.4m-.4,-.4h22.4m-14.3,0h22.4m-.4,.4V106.3m0,16.5V100.5m.4,.3H572m14.3,0H563.9m.4,-.3v22.3" class="g1_1"/>
<path d="M209,165H594V137.5H209V165Zm-33,36.7H594V174.2H176v27.5Zm-55,36.6H594V210.8H121v27.5Zm0,55H407V265.8H121v27.5Zm297,0h55V265.8H418v27.5Zm66,0H594V265.8H484v27.5ZM121,337.6H319V311.7H121v25.9Zm209,0H473V311.7H330v25.9Zm154,0H594V311.7H484v25.9ZM660,91.7H847M660,293.3H847M869,113.7V271.3M638,113.7V271.3" class="g0_1"/>
<path d="M638,271.3v22.4m-.4,-.4H660m187,0h22.4m-.4,.4V271.3m0,-157.6V91.3m.4,.4H847m-187,0H637.6m.4,-.4v22.4" class="g1_1"/>
<path d="M649,145H858V108.3H649V145Z" class="g2_1"/>
<path d="M650.8,165.7h15.3V150.4H650.8v15.3Zm0,27.5h15.3V177.9H650.8v15.3Zm0,27.5h15.3V205.4H650.8v15.3Zm0,27.5h15.3V232.9H650.8v15.3Z" class="g0_1"/>
<path d="M55,403.3h55V385H55v18.3Z" class="g2_1"/>
<path d="M54.6,385h55.8" class="g3_1"/>
<path d="M54.6,403.3h55.8" class="g0_1"/>
<path d="M54.6,385H880.4" class="g3_1"/>
<path d="M54.6,403.3H880.4M693,440h33V412.5H693V440Zm55,0h33V412.5H748V440Zm-54.4,34.4h15.3V459.1H693.6v15.3Zm0,28.2h15.3V487.4H693.6v15.2Z" class="g0_1"/>
<path d="M55,531.7h55V513.3H55v18.4Z" class="g2_1"/>
<path d="M54.6,513.3h55.8" class="g3_1"/>
<path d="M54.6,531.7h55.8" class="g0_1"/>
<path d="M54.6,513.3H880.4" class="g3_1"/>
<path d="M54.6,531.7H880.4m-187.8,9.1H836.4M692.6,568.3H836.4M693,540.4v28.3M835.6,540.8h44.8m-44.8,27.5h44.8M880,540.4v28.3m-407.4,-.4H616.4M472.6,595.8H616.4M473,567.9v28.3M615.6,568.3h44.8m-44.8,27.5h44.8M660,567.9v28.3M242,621.8h15.3V606.5H242v15.3Zm0,18.3h15.3V624.9H242v15.2ZM473,621.8h15.3V606.5H473v15.3Zm0,18.3h15.3V624.9H473v15.2ZM660,621.8h15.3V606.5H660v15.3Zm-187.4,29H616.4M472.6,678.3H616.4M473,650.4v28.3M615.6,650.8h44.8m-44.8,27.5h44.8M660,650.4v28.3m32.6,-.4H836.4M692.6,705.8H836.4M693,677.9v28.3M835.6,678.3h44.8m-44.8,27.5h44.8M880,677.9v28.3M692.6,715H836.4M692.6,742.5H836.4M693,714.6v28.3M835.6,715h44.8m-44.8,27.5h44.8M880,714.6v28.3m-187.4,8.8H836.4M692.6,779.2H836.4M693,751.3v28.3M835.6,751.7h44.8m-44.8,27.5h44.8M880,751.3v28.3" class="g0_1"/>
<path d="M55,806.7h55V788.3H55v18.4Z" class="g2_1"/>
<path d="M54.6,788.3h55.8" class="g3_1"/>
<path d="M54.6,806.7h55.8" class="g0_1"/>
<path d="M54.6,788.3H880.4" class="g4_1"/>
<path d="M54.6,806.7H880.4m-187.8,9.1H836.4M692.6,843.3H836.4M693,815.4v28.3M835.6,815.8h44.8m-44.8,27.5h44.8M880,815.4v28.3m-187.4,18H836.4M692.6,889.2H836.4M693,861.3v28.3M835.6,861.7h44.8m-44.8,27.5h44.8M880,861.3v28.3M692.6,895H836.4M692.6,922.5H836.4M693,894.6v28.2M835.6,895h44.8m-44.8,27.5h44.8M880,894.6v28.2" class="g0_1"/>
<path d="M55,944.2h55V925.8H55v18.4Z" class="g2_1"/>
<path d="M54.6,925.8h55.8" class="g3_1"/>
<path d="M54.6,944.2h55.8" class="g0_1"/>
<path d="M109.6,925.8H880.4" class="g4_1"/>
<path d="M109.6,944.2H880.4M692.6,950H836.4M692.6,977.5H836.4M693,949.6v28.2M835.6,950h44.8m-44.8,27.5h44.8M880,949.6v28.2m-187.4,8.8H836.4m-143.8,27.5H836.4M693,986.2v28.3M835.6,986.6h44.8m-44.8,27.5h44.8M880,986.2v28.3M692.6,1045H836.4m-143.8,27.5H836.4M693,1044.6v28.3M835.6,1045h44.8m-44.8,27.5h44.8m-.4,-27.9v28.3m-187.4,8.8H836.4m-143.8,27.5H836.4M693,1081.3v28.3m142.6,-27.9h44.8m-44.8,27.5h44.8m-.4,-27.9v28.3m-271.9,23.2h15.2v-15.2H608.1v15.2Zm143,-.7h15.2v-15.3H751.1v15.3Z" class="g0_1"/>
<path d="M54.6,1155H594.4m-.8,0H792.4m-.8,0h88.8" class="g5_1"/>
</svg>