<?xml version="1.0" encoding="UTF-8" standalone="no"?>
<!DOCTYPE svg PUBLIC "-//W3C//DTD SVG 1.1//EN"
"http://www.w3.org/Graphics/SVG/1.1/DTD/svg11.dtd">
<svg viewBox="0 0 934 1209" version="1.1" xmlns="http://www.w3.org/2000/svg" xmlns:xlink="http://www.w3.org/1999/xlink">
<defs>
<style type="text/css"><![CDATA[
.g0_1{
fill: none;
stroke: #000;
stroke-width: 0.763;
stroke-miterlimit: 10;
}
.g1_1{
fill: none;
stroke: #000;
stroke-width: 0.762;
stroke-miterlimit: 10;
}
.g2_1{
fill: none;
stroke: #000;
stroke-width: 0.757;
stroke-miterlimit: 10;
}
.g3_1{
fill: #000;
}
.g4_1{
fill: none;
stroke: #000;
stroke-width: 1.222;
stroke-miterlimit: 10;
}
.g5_1{
fill: #D9D9D9;
}
.g6_1{
fill: none;
stroke: #000;
stroke-width: 1.527;
stroke-miterlimit: 10;
}
]]></style>
</defs>
<path d="M55,348.3H605V91.7H55V348.3ZM256.2,100.8H241.9m14.3,27.5H241.9m22,-5.5V106.3m-29.7,16.5V106.3" class="g0_1"/>
<path d="M234.2,106.3v22.4m-.4,-.4h22.4m-14.3,0h22.4m-.4,.4V106.3m0,16.5V100.5m.4,.3H241.9m14.3,0H233.8m.4,-.3v22.3" class="g1_1"/>
<path d="M294.1,100.8H279.8m14.3,27.5H279.8m22,-5.5V106.3m-29.7,16.5V106.3" class="g0_1"/>
<path d="M272.1,106.3v22.4m-.4,-.4h22.4m-14.3,0h22.3m-.3,.4V106.3m0,16.5V100.5m.3,.3H279.8m14.3,0H271.7m.4,-.3v22.3" class="g1_1"/>
<path d="M351.7,100.8H337.4m14.3,27.5H337.4m22,-5.5V106.3m-29.7,16.5V106.3" class="g0_1"/>
<path d="M329.7,106.3v22.4m-.3,-.4h22.3m-14.3,0h22.4m-.4,.4V106.3m0,16.5V100.5m.4,.3H337.4m14.3,0H329.4m.3,-.3v22.3" class="g1_1"/>
<path d="M390.5,100.8H376.2m14.3,27.5H376.2m22,-5.5V106.3m-29.7,16.5V106.3" class="g0_1"/>
<path d="M368.5,106.3v22.4m-.4,-.4h22.4m-14.3,0h22.4m-.4,.4V106.3m0,16.5V100.5m.4,.3H376.2m14.3,0H368.1m.4,-.3v22.3" class="g1_1"/>
<path d="M429.3,100.8H415m14.3,27.5H415m22,-5.5V106.3m-29.7,16.5V106.3" class="g0_1"/>
<path d="M407.3,106.3v22.4m-.4,-.4h22.4m-14.3,0h22.3m-.3,.4V106.3m0,16.5V100.5m.3,.3H415m14.3,0H406.9m.4,-.3v22.3" class="g1_1"/>
<path d="M468,100.8H453.7M468,128.3H453.7m22,-5.5V106.3M446,122.8V106.3" class="g0_1"/>
<path d="M446,106.3v22.4m-.4,-.4H468m-14.3,0h22.4m-.4,.4V106.3m0,16.5V100.5m.4,.3H453.7m14.3,0H445.6m.4,-.3v22.3" class="g1_1"/>
<path d="M506.8,100.8H492.5m14.3,27.5H492.5m22,-5.5V106.3m-29.7,16.5V106.3" class="g0_1"/>
<path d="M484.8,106.3v22.4m-.4,-.4h22.4m-14.3,0h22.4m-.4,.4V106.3m0,16.5V100.5m.4,.3H492.5m14.3,0H484.4m.4,-.3v22.3" class="g1_1"/>
<path d="M545.5,100.8H531.2m14.3,27.5H531.2m22,-5.5V106.3m-29.7,16.5V106.3" class="g0_1"/>
<path d="M523.5,106.3v22.4m-.3,-.4h22.3m-14.3,0h22.4m-.4,.4V106.3m0,16.5V100.5m.4,.3H531.2m14.3,0H523.2m.3,-.3v22.3" class="g1_1"/>
<path d="M584.3,100.8H570m14.3,27.5H570m22,-5.5V106.3m-29.7,16.5V106.3" class="g0_1"/>
<path d="M562.3,106.3v22.4m-.4,-.4h22.4m-14.3,0h22.4m-.4,.4V106.3m0,16.5V100.5m.4,.3H570m14.3,0H561.9m.4,-.3v22.3" class="g1_1"/>
<path d="M209,165H594V137.5H209V165Zm-33,36.7H594V174.2H176v27.5Zm-55,36.6H594V210.8H121v27.5Zm0,45.9H407V256.7H121v27.5Zm297,0h55V256.7H418v27.5Zm66,0H594V256.7H484v27.5ZM120.6,302.5H341.4M120.6,330H341.4M341,302.1v28.3M121,302.1v28.3M351.6,302.5H484.4M351.6,330H484.4M484,302.1v28.3M352,302.1v28.3M494.6,302.5h99.8M494.6,330h99.8M594,302.1v28.3M495,302.1v28.3M660,91.7H847M660,284.2H847M869,113.7V262.2M638,113.7V262.2" class="g0_1"/>
<path d="M638,262.2v22.3m-.4,-.3H660m187,0h22.4m-.4,.3V262.2m0,-148.5V91.3m.4,.4H847m-187,0H637.6m.4,-.4v22.4" class="g2_1"/>
<path d="M649,137.5H858V100.8H649v36.7Z" class="g3_1"/>
<path d="M649,163.5h15.3V148.2H649v15.3Zm0,24.4h15.3V172.6H649v15.3Zm0,24.5h15.3V197.1H649v15.3Zm0,24.4h15.3V221.5H649v15.3Z" class="g0_1"/>
<path d="M55,394.2h55V375.8H55v18.4Z" class="g3_1"/>
<path d="M54.6,375.8H880.4" class="g4_1"/>
<path d="M54.6,394.2H880.4M682,435.4H880V412.5H682v22.9Zm-.4,13.8H836.4M681.6,472.1H836.4M682,448.8v23.7M835.6,449.2h44.8m-44.8,22.9h44.8M880,448.8v23.7M681.6,485.8H836.4m-154.8,23H836.4M682,485.4v23.7M835.6,485.8h44.8m-44.8,23h44.8M880,485.4v23.7M682,541.6h15.3V526.3H682v15.3ZM329.6,568.3h99.8m-99.8,23h99.8M330,567.9v23.7m98.6,-23.3h44.8m-44.8,23h44.8M473,567.9v23.7m65.6,-23.3h99.8m-99.8,23h99.8M539,567.9v23.7m98.6,-23.3h44.8m-44.8,23h44.8M682,567.9v23.7m-352.4,4.1h99.8m-99.8,22.9h99.8M330,595.3V619m98.6,-23.3h44.8m-44.8,22.9h44.8M473,595.3V619m65.6,-23.3h99.8m-99.8,22.9h99.8M539,595.3V619m98.6,-23.3h44.8m-44.8,22.9h44.8M682,595.3V619m-352.4,4.2h99.8m-99.8,22.9h99.8M330,622.8v23.7m98.6,-23.3h44.8m-44.8,22.9h44.8M473,622.8v23.7m65.6,-23.3h99.8m-99.8,22.9h99.8M539,622.8v23.7m98.6,-23.3h44.8m-44.8,22.9h44.8M682,622.8v23.7m33,-78.2H858M715,705.8H858M880,590.3v93.5M693,590.3v93.5" class="g0_1"/>
<path d="M693,683.8v22.4m-.4,-.4H715m143,0h22.4m-.4,.4V683.8m0,-93.5V568m.4,.3H858m-143,0H692.6m.4,-.3v22.3" class="g2_1"/>
<path d="M329.6,650.8h99.8m-99.8,23h99.8M330,650.4v23.7m98.6,-23.3h44.8m-44.8,23h44.8M473,650.4v23.7m65.6,-23.3h99.8m-99.8,23h99.8M539,650.4v23.7m98.6,-23.3h44.8m-44.8,23h44.8M682,650.4v23.7m-352.4,4.2h99.8m-99.8,23h99.8M330,677.9v23.7m98.6,-23.3h44.8m-44.8,23h44.8M473,677.9v23.7m65.6,-23.3h99.8m-99.8,23h99.8M539,677.9v23.7m98.6,-23.3h44.8m-44.8,23h44.8M682,677.9v23.7M329.6,715h99.8m-99.8,22.9h99.8M330,714.6v23.7M428.6,715h44.8m-44.8,22.9h44.8M473,714.6v23.7M538.6,715h99.8m-99.8,22.9h99.8M539,714.6v23.7M637.6,715h44.8m-44.8,22.9h44.8M682,714.6v23.7m-.4,13.4H836.4M681.6,774.6H836.4M682,751.3V775M835.6,751.7h44.8m-44.8,22.9h44.8M880,751.3V775M681.6,788.3H836.4m-154.8,23H836.4M682,787.9v23.7M835.6,788.3h44.8m-44.8,23h44.8M880,787.9v23.7M681.6,825H836.4M681.6,847.9H836.4M682,824.6v23.7M835.6,825h44.8m-44.8,22.9h44.8M880,824.6v23.7M681.6,861.7H836.4M681.6,884.6H836.4M682,861.3V885M835.6,861.7h44.8m-44.8,22.9h44.8M880,861.3V885M681.6,898.3H836.4m-154.8,23H836.4M682,897.9v23.7M835.6,898.3h44.8m-44.8,23h44.8M880,897.9v23.7M681.6,935H836.4M681.6,957.9H836.4M682,934.6v23.7M835.6,935h44.8m-44.8,22.9h44.8M880,934.6v23.7M681.6,971.7H836.4M681.6,994.6H836.4M682,971.3V995M835.6,971.7h44.8m-44.8,22.9h44.8M880,971.3V995m-198.4,13.3H836.4m-154.8,23H836.4M682,1007.9v23.7m153.6,-23.3h44.8m-44.8,23h44.8m-.4,-23.4v23.7m-198.4,22.6H836.4m-154.8,22.9H836.4M682,1053.8v23.7m153.6,-23.3h44.8m-44.8,22.9h44.8m-.4,-23.3v23.7" class="g0_1"/>
<path d="M682,1118.3H836v-22.9H682v22.9Z" class="g5_1"/>
<path d="M681.6,1095.4H836.4m-154.8,22.9H836.4M682,1095v23.7" class="g0_1"/>
<path d="M836,1118.3h44v-22.9H836v22.9Z" class="g5_1"/>
<path d="M835.6,1095.4h44.8m-44.8,22.9h44.8M880,1095v23.7" class="g0_1"/>
<path d="M54.6,1155H594.4m-.8,0H748.4m-.8,0H880.4" class="g6_1"/>
</svg>