<?xml version="1.0" encoding="UTF-8" standalone="no"?>
<!DOCTYPE svg PUBLIC "-//W3C//DTD SVG 1.1//EN"
"http://www.w3.org/Graphics/SVG/1.1/DTD/svg11.dtd">
<svg viewBox="0 0 934 1209" version="1.1" xmlns="http://www.w3.org/2000/svg" xmlns:xlink="http://www.w3.org/1999/xlink">
<defs>
<style type="text/css"><![CDATA[
.g0_2{
fill: none;
stroke: #000;
stroke-width: 1.527;
stroke-miterlimit: 10;
}
.g1_2{
fill: none;
stroke: #000;
stroke-width: 0.763;
stroke-miterlimit: 10;
}
.g2_2{
fill: #000;
}
.g3_2{
fill: none;
stroke: #000;
stroke-width: 1.222;
stroke-miterlimit: 10;
}
.g4_2{
fill: #D9D9D9;
}
]]></style>
</defs>
<path d="M54.6,73.3H880.4" class="g0_2"/>
<path d="M605,72.9V89m0,-.8v22.2" class="g1_2"/>
<path d="M55,128.3h55V110H55v18.3Z" class="g2_2"/>
<path d="M54.6,110H880.4" class="g3_2"/>
<path d="M54.6,128.3H880.4M681.6,146.7H836.4M681.6,169.6H836.4M682,146.3V170M835.6,146.7h44.8m-44.8,22.9h44.8M880,146.3V170" class="g1_2"/>
<path d="M682,215.4H836V192.5H682v22.9Z" class="g4_2"/>
<path d="M681.6,192.5H836.4M681.6,215.4H836.4M682,192.1v23.7" class="g1_2"/>
<path d="M836,215.4h44V192.5H836v22.9Z" class="g4_2"/>
<path d="M835.6,192.5h44.8m-44.8,22.9h44.8M880,192.1v23.7" class="g1_2"/>
<path d="M495,252.1H627V229.2H495v22.9Z" class="g4_2"/>
<path d="M495,252.1H627V229.2H495v22.9Zm186.6,13.7H836.4m-154.8,23H836.4M682,265.4v23.7M835.6,265.8h44.8m-44.8,23h44.8M880,265.4v23.7M681.6,302.5H836.4M681.6,325.4H836.4M682,302.1v23.7M835.6,302.5h44.8m-44.8,22.9h44.8M880,302.1v23.7M681.6,348.3H836.4m-154.8,23H836.4M682,347.9v23.7M835.6,348.3h44.8m-44.8,23h44.8M880,347.9v23.7" class="g1_2"/>
<path d="M682,407.9H836V385H682v22.9Z" class="g4_2"/>
<path d="M681.6,385H836.4M681.6,407.9H836.4M682,384.6v23.7" class="g1_2"/>
<path d="M836,407.9h44V385H836v22.9Z" class="g4_2"/>
<path d="M835.6,385h44.8m-44.8,22.9h44.8M880,384.6v23.7M681.6,430.8H836.4m-154.8,23H836.4M682,430.4v23.7M835.6,430.8h44.8m-44.8,23h44.8M880,430.4v23.7" class="g1_2"/>
<path d="M682,490.4H836V467.5H682v22.9Z" class="g4_2"/>
<path d="M681.6,467.5H836.4M681.6,490.4H836.4M682,467.1v23.7" class="g1_2"/>
<path d="M836,490.4h44V467.5H836v22.9Z" class="g4_2"/>
<path d="M835.6,467.5h44.8m-44.8,22.9h44.8M880,467.1v23.7M681.6,513.3H836.4m-154.8,23H836.4M682,512.9v23.7M835.6,513.3h44.8m-44.8,23h44.8M880,512.9v23.7" class="g1_2"/>
<path d="M682,582.1H836V559.2H682v22.9Z" class="g4_2"/>
<path d="M681.6,559.2H836.4M681.6,582.1H836.4M682,558.8v23.7" class="g1_2"/>
<path d="M836,582.1h44V559.2H836v22.9Z" class="g4_2"/>
<path d="M835.6,559.2h44.8m-44.8,22.9h44.8M880,558.8v23.7M681.6,595.8H836.4m-154.8,23H836.4M682,595.4v23.7M835.6,595.8h44.8m-44.8,23h44.8M880,595.4v23.7" class="g1_2"/>
<path d="M682,655.4H836V632.5H682v22.9Z" class="g4_2"/>
<path d="M681.6,632.5H836.4M681.6,655.4H836.4M682,632.1v23.7" class="g1_2"/>
<path d="M836,655.4h44V632.5H836v22.9Z" class="g4_2"/>
<path d="M835.6,632.5h44.8m-44.8,22.9h44.8M880,632.1v23.7" class="g1_2"/>
<path d="M682,692.1H836V669.2H682v22.9Z" class="g4_2"/>
<path d="M681.6,669.2H836.4M681.6,692.1H836.4M682,668.8v23.7" class="g1_2"/>
<path d="M836,692.1h44V669.2H836v22.9Z" class="g4_2"/>
<path d="M835.6,669.2h44.8m-44.8,22.9h44.8M880,668.8v23.7M681.6,705.8H836.4m-154.8,23H836.4M682,705.4v23.7M835.6,705.8h44.8m-44.8,23h44.8M880,705.4v23.7M461.6,742.5h99.8m-99.8,22.9h99.8M462,742.1v23.7m98.6,-23.3h44.8m-44.8,22.9h44.8M605,742.1v23.7m77,-2.7h15.3V747.8H682v15.3Zm110,0h15.3V747.8H792v15.3Z" class="g1_2"/>
<path d="M55,797.5h55V779.2H55v18.3Z" class="g2_2"/>
<path d="M54.6,779.2H880.4" class="g3_2"/>
<path d="M54.6,797.5H880.4M166.8,851h15.3V835.7H166.8V851Zm0,73.3h15.3V909H166.8v15.3Zm184.8,29H506.4m-154.8,23H506.4M352,952.9v23.7M505.6,953.3h44.8m-44.8,23h44.8M550,952.9v23.7m-198.4,9.6H506.4m-154.8,22.9H506.4M352,985.8v23.7M505.6,986.2h44.8m-44.8,22.9h44.8M550,985.8v23.7M351.6,1019H506.4m-154.8,22.9H506.4M352,1018.6v23.7M505.6,1019h44.8m-44.8,22.9h44.8m-.4,-23.3v23.7m-198.4,9.6H506.4m-154.8,22.9H506.4M352,1051.5v23.7m153.6,-23.3h44.8m-44.8,22.9h44.8m-.4,-23.3v23.7m-383.2,23.3h15.3v-15.3H166.8v15.3Z" class="g1_2"/>
<path d="M54.6,1145.8H99.4m-.8,0H880.4" class="g0_2"/>
</svg>