<?xml version="1.0" encoding="UTF-8" standalone="no"?>
<!DOCTYPE svg PUBLIC "-//W3C//DTD SVG 1.1//EN"
"http://www.w3.org/Graphics/SVG/1.1/DTD/svg11.dtd">
<svg viewBox="0 0 933 1209" version="1.1" xmlns="http://www.w3.org/2000/svg" xmlns:xlink="http://www.w3.org/1999/xlink">
<defs>
<style type="text/css"><![CDATA[
.g0_2{
fill: none;
stroke: #000;
stroke-width: 1.527;
stroke-miterlimit: 10;
}
.g1_2{
fill: none;
stroke: #000;
stroke-width: 0.763;
stroke-miterlimit: 10;
}
.g2_2{
fill: #000;
}
.g3_2{
fill: none;
stroke: #000;
stroke-width: 1.222;
stroke-miterlimit: 10;
}
.g4_2{
fill: none;
stroke: #000;
stroke-width: 0.762;
stroke-miterlimit: 10;
}
.g5_2{
fill: none;
stroke: #000;
stroke-width: 0.757;
stroke-miterlimit: 10;
}
]]></style>
</defs>
<path d="M54.2,73.3H880.8" class="g0_2"/>
<path d="M54.6,110H605.4M605,72.9v37.5" class="g1_2"/>
<path d="M55,128.3h55V110H55v18.3Z" class="g2_2"/>
<path d="M54.6,110h55.8" class="g3_2"/>
<path d="M54.6,128.3h55.8" class="g1_2"/>
<path d="M54.6,110H880.4" class="g3_2"/>
<path d="M54.6,128.3H880.4m-352.8,55H671.4M527.6,210.8H671.4M528,182.9v28.3M670.6,183.3h44.8m-44.8,27.5h44.8M715,182.9v28.3M527.6,220H671.4M527.6,247.5H671.4M528,219.6v28.3M670.6,220h44.8m-44.8,27.5h44.8M715,219.6v28.3m-187.4,8.8H671.4M527.6,284.2H671.4M528,256.3v28.3M670.6,256.7h44.8m-44.8,27.5h44.8M715,256.3v28.3m-187.4,8.7H671.4M527.6,320.8H671.4M528,292.9v28.3M670.6,293.3h44.8m-44.8,27.5h44.8M715,292.9v28.3M527.6,330H671.4M527.6,357.5H671.4M528,329.6v28.3M670.6,330h44.8m-44.8,27.5h44.8M715,329.6v28.3" class="g1_2"/>
<path d="M55,385h55V366.7H55V385Z" class="g2_2"/>
<path d="M54.6,366.7h55.8" class="g3_2"/>
<path d="M54.6,385h55.8" class="g1_2"/>
<path d="M54.6,366.7H880.4" class="g3_2"/>
<path d="M54.6,385H880.4M88,456.8h15.3V441.5H88v15.3Zm308,1.5H627V430.8H396v27.5Zm253,0H869V430.8H649v27.5Zm22,9.2H660M671,495H660m22,-5.5V473m-33,16.5V473" class="g1_2"/>
<path d="M649,473v22.4m-.4,-.4H671m-11,0h22.4m-.4,.4V473m0,16.5V467.1m.4,.4H660m11,0H648.6m.4,-.4v22.4" class="g4_2"/>
<path d="M715,467.5H704M715,495H704m22,-5.5V473m-33,16.5V473" class="g1_2"/>
<path d="M693,473v22.4m-.4,-.4H715m-11,0h22.4m-.4,.4V473m0,16.5V467.1m.4,.4H704m11,0H692.6m.4,-.4v22.4" class="g4_2"/>
<path d="M759,467.5H748M759,495H748m22,-5.5V473m-33,16.5V473" class="g1_2"/>
<path d="M737,473v22.4m-.4,-.4H759m-11,0h22.4m-.4,.4V473m0,16.5V467.1m.4,.4H748m11,0H736.6m.4,-.4v22.4" class="g4_2"/>
<path d="M803,467.5H792M803,495H792m22,-5.5V473m-33,16.5V473" class="g1_2"/>
<path d="M781,473v22.4m-.4,-.4H803m-11,0h22.4m-.4,.4V473m0,16.5V467.1m.4,.4H792m11,0H780.6m.4,-.4v22.4" class="g4_2"/>
<path d="M847,467.5H836M847,495H836m22,-5.5V473m-33,16.5V473" class="g1_2"/>
<path d="M825,473v22.4m-.4,-.4H847m-11,0h22.4m-.4,.4V473m0,16.5V467.1m.4,.4H836m11,0H824.6m.4,-.4v22.4" class="g4_2"/>
<path d="M88,520.2h15.3V504.9H88v15.3Z" class="g1_2"/>
<path d="M55,550h55V531.7H55V550Z" class="g2_2"/>
<path d="M54.6,531.7h55.8" class="g3_2"/>
<path d="M54.6,550h55.8" class="g1_2"/>
<path d="M54.6,531.7H880.4" class="g3_2"/>
<path d="M54.6,550H880.4M198,632.5H462m-264,55H462m22,-33v11m-308,-11v11" class="g1_2"/>
<path d="M176,665.5v22.4m-.4,-.4H198m264,0h22.4m-.4,.4V665.5m0,-11V632.1m.4,.4H462m-264,0H175.6m.4,-.4v22.4" class="g5_2"/>
<path d="M176,742.5H297V715H176v27.5ZM583,660H869V632.5H583V660Zm0,36.7H869V669.2H583v27.5Zm66,36.6H869V705.8H649v27.5ZM54.6,770H880.4m-26.7,29.8H869V784.5H853.7v15.3ZM220,861.7H616V834.2H220v27.5Zm462,0H869V834.2H682v27.5ZM242,880H594M242,907.5H594M616,902V885.5M220,902V885.5" class="g1_2"/>
<path d="M220,885.5v22.4m-.4,-.4H242m352,0h22.4m-.4,.4V885.5m0,16.5V879.6m.4,.4H594m-352,0H219.6m.4,-.4V902" class="g5_2"/>
<path d="M682,907.5H803V880H682v27.5ZM220,953.3H616V925.8H220v27.5Zm462,0H869V925.8H682v27.5ZM220,990H616V962.5H220V990Zm462,0H869V962.5H682V990Zm-462,36.7H407V999.2H220v27.5Zm242,0H616V999.2H462v27.5Zm220,0H869V999.2H682v27.5Z" class="g1_2"/>
<path d="M54.6,1063.3H792.4m-.8,0h88.8" class="g0_2"/>
</svg>