<?xml version="1.0" encoding="UTF-8" standalone="no"?>
<!DOCTYPE svg PUBLIC "-//W3C//DTD SVG 1.1//EN"
"http://www.w3.org/Graphics/SVG/1.1/DTD/svg11.dtd">
<svg viewBox="0 0 935 1210" version="1.1" xmlns="http://www.w3.org/2000/svg" xmlns:xlink="http://www.w3.org/1999/xlink">
<defs>
<style type="text/css"><![CDATA[
.g0_1{
fill: none;
stroke: #000;
stroke-width: 0.763;
stroke-miterlimit: 10;
}
.g1_1{
fill: none;
stroke: #000;
stroke-width: 0.762;
stroke-miterlimit: 10;
}
.g2_1{
fill: #000;
}
.g3_1{
fill: none;
stroke: #000;
stroke-width: 1.145;
stroke-miterlimit: 10;
}
.g4_1{
fill: #FFF;
}
.g5_1{
fill: none;
stroke: #000;
stroke-width: 0.757;
stroke-miterlimit: 10;
}
.g6_1{
fill: #D9D9D9;
}
.g7_1{
fill: none;
stroke: #000;
stroke-width: 1.527;
stroke-miterlimit: 10;
}
]]></style>
</defs>
<path d="M682,100.8H847M682,256.7H847M869,122.8V234.7M660,122.8V234.7" class="g0_1"/>
<path d="M660,234.7V257m-.4,-.3H682m165,0h22.4m-.4,.3V234.7m0,-111.9V100.5m.4,.3H847m-165,0H659.6m.4,-.3v22.3" class="g1_1"/>
<path d="M660,128.3H869V110H660v18.3Z" class="g2_1"/>
<path d="M77,100.8H627M77,357.5H627M649,122.8V335.5M55,122.8V335.5" class="g0_1"/>
<path d="M55,335.5v22.4m-.4,-.4H77m550,0h22.4m-.4,.4V335.5m0,-212.7V100.5m.4,.3H627m-550,0H54.6m.4,-.3v22.3" class="g1_1"/>
<path d="M300.2,110H285.9m14.3,27.5H285.9m22,-5.5V115.5M278.2,132V115.5" class="g0_1"/>
<path d="M278.2,115.5v22.4m-.4,-.4h22.4m-14.3,0h22.4m-.4,.4V115.5m0,16.5V109.6m.4,.4H285.9m14.3,0H277.8m.4,-.4V132" class="g1_1"/>
<path d="M338.1,110H323.8m14.3,27.5H323.8m22,-5.5V115.5M316.1,132V115.5" class="g0_1"/>
<path d="M316.1,115.5v22.4m-.4,-.4h22.4m-14.3,0h22.3m-.3,.4V115.5m0,16.5V109.6m.3,.4H323.8m14.3,0H315.7m.4,-.4V132" class="g1_1"/>
<path d="M395.7,110H381.4m14.3,27.5H381.4m22,-5.5V115.5M373.7,132V115.5" class="g0_1"/>
<path d="M373.7,115.5v22.4m-.3,-.4h22.3m-14.3,0h22.4m-.4,.4V115.5m0,16.5V109.6m.4,.4H381.4m14.3,0H373.4m.3,-.4V132" class="g1_1"/>
<path d="M434.5,110H420.2m14.3,27.5H420.2m22,-5.5V115.5M412.5,132V115.5" class="g0_1"/>
<path d="M412.5,115.5v22.4m-.4,-.4h22.4m-14.3,0h22.4m-.4,.4V115.5m0,16.5V109.6m.4,.4H420.2m14.3,0H412.1m.4,-.4V132" class="g1_1"/>
<path d="M473.3,110H459m14.3,27.5H459M481,132V115.5M451.3,132V115.5" class="g0_1"/>
<path d="M451.3,115.5v22.4m-.4,-.4h22.4m-14.3,0h22.3m-.3,.4V115.5m0,16.5V109.6m.3,.4H459m14.3,0H450.9m.4,-.4V132" class="g1_1"/>
<path d="M512,110H497.7M512,137.5H497.7m22,-5.5V115.5M490,132V115.5" class="g0_1"/>
<path d="M490,115.5v22.4m-.4,-.4H512m-14.3,0h22.4m-.4,.4V115.5m0,16.5V109.6m.4,.4H497.7m14.3,0H489.6m.4,-.4V132" class="g1_1"/>
<path d="M550.8,110H536.5m14.3,27.5H536.5m22,-5.5V115.5M528.8,132V115.5" class="g0_1"/>
<path d="M528.8,115.5v22.4m-.4,-.4h22.4m-14.3,0h22.4m-.4,.4V115.5m0,16.5V109.6m.4,.4H536.5m14.3,0H528.4m.4,-.4V132" class="g1_1"/>
<path d="M589.5,110H575.2m14.3,27.5H575.2m22,-5.5V115.5M567.5,132V115.5" class="g0_1"/>
<path d="M567.5,115.5v22.4m-.3,-.4h22.3m-14.3,0h22.4m-.4,.4V115.5m0,16.5V109.6m.4,.4H575.2m14.3,0H567.2m.3,-.4V132" class="g1_1"/>
<path d="M628.3,110H614m14.3,27.5H614M636,132V115.5M606.3,132V115.5" class="g0_1"/>
<path d="M606.3,115.5v22.4m-.4,-.4h22.4m-14.3,0h22.4m-.4,.4V115.5m0,16.5V109.6m.4,.4H614m14.3,0H605.9m.4,-.4V132" class="g1_1"/>
<path d="M210.5,174.2H638V146.7H210.5v27.5Zm-44,36.6H638V183.3H166.5v27.5Zm-44,36.7H638V220H122.5v27.5Zm0,45.8H451V265.8H122.5v27.5Zm339.5,0h55V265.8H462v27.5Zm66,0H638V265.8H528v27.5ZM122.5,339.2H396V311.7H122.5v27.5Zm286,0H517V311.7H408.5v27.5Zm119.5,0H638V311.7H528v27.5Z" class="g0_1"/>
<path d="M55,440h55V385H55v55Z" class="g2_1"/>
<path d="M54.6,385H880.4" class="g3_1"/>
<path d="M54.6,440H880.4m-198.8,9.2H836.4M681.6,476.7H836.4M682,448.8v28.3M835.6,449.2h44.8m-44.8,27.5h44.8M880,448.8v28.3m-198.4,8.7H836.4M681.6,513.3H836.4M682,485.4v28.3M835.6,485.8h44.8m-44.8,27.5h44.8M880,485.4v28.3" class="g0_1"/>
<path d="M682,539.3h15.3V524H682v15.3Z" class="g4_1"/>
<path d="M682,539.3h15.3V524H682v15.3ZM318.6,586.7H429.4M318.6,614.2H429.4M319,586.3v28.3M428.6,586.7h44.8m-44.8,27.5h44.8M473,586.3v28.3m65.6,-27.9H649.4M538.6,614.2H649.4M539,586.3v28.3M648.6,586.7h44.8m-44.8,27.5h44.8M693,586.3v28.3m-374.4,8.7H429.4M318.6,650.8H429.4M319,622.9v28.3M428.6,623.3h44.8m-44.8,27.5h44.8M473,622.9v28.3m65.6,-27.9H649.4M538.6,650.8H649.4M539,622.9v28.3M648.6,623.3h44.8m-44.8,27.5h44.8M693,622.9v28.3M318.6,660H429.4M318.6,687.5H429.4M319,659.6v28.3M428.6,660h44.8m-44.8,27.5h44.8M473,659.6v28.3M538.6,660H649.4M538.6,687.5H649.4M539,659.6v28.3M648.6,660h44.8m-44.8,27.5h44.8M693,659.6v28.3M726,586.7H858M726,724.2H858M880,608.7v93.5M704,608.7v93.5" class="g0_1"/>
<path d="M704,702.2v22.3m-.4,-.3H726m132,0h22.4m-.4,.3V702.2m0,-93.5V586.3m.4,.4H858m-132,0H703.6m.4,-.4v22.4" class="g5_1"/>
<path d="M318.6,696.7H429.4M318.6,724.2H429.4M319,696.3v28.3M428.6,696.7h44.8m-44.8,27.5h44.8M473,696.3v28.3m65.6,-27.9H649.4M538.6,724.2H649.4M539,696.3v28.3M648.6,696.7h44.8m-44.8,27.5h44.8M693,696.3v28.3m-374.4,8.7H429.4M318.6,760.8H429.4M319,732.9v28.3M428.6,733.3h44.8m-44.8,27.5h44.8M473,732.9v28.3m65.6,-27.9H649.4M538.6,760.8H649.4M539,732.9v28.3M648.6,733.3h44.8m-44.8,27.5h44.8M693,732.9v28.3M318.6,788.3H429.4M318.6,815.8H429.4M319,787.9v28.3M428.6,788.3h44.8m-44.8,27.5h44.8M473,787.9v28.3m65.6,-27.9H649.4M538.6,815.8H649.4M539,787.9v28.3M648.6,788.3h44.8m-44.8,27.5h44.8M693,787.9v28.3M681.6,825H836.4M681.6,852.5H836.4M682,824.6v28.3M835.6,825h44.8m-44.8,27.5h44.8M880,824.6v28.3m-198.4,8.8H836.4M681.6,889.2H836.4M682,861.3v28.3M835.6,861.7h44.8m-44.8,27.5h44.8M880,861.3v28.3m-198.4,8.7H836.4M681.6,925.8H836.4M682,897.9v28.3M835.6,898.3h44.8m-44.8,27.5h44.8M880,897.9v28.3M681.6,935H836.4M681.6,962.5H836.4M682,934.6v28.3M835.6,935h44.8m-44.8,27.5h44.8M880,934.6v28.3m-198.4,8.8H836.4M681.6,999.2H836.4M682,971.3v28.3M835.6,971.7h44.8m-44.8,27.5h44.8M880,971.3v28.3m-198.4,17.9H836.4M681.6,1045H836.4M682,1017.1v28.3m153.6,-27.9h44.8M835.6,1045h44.8m-.4,-27.9v28.3" class="g0_1"/>
<path d="M682,1081.7H836v-27.5H682v27.5Z" class="g6_1"/>
<path d="M681.6,1054.2H836.4m-154.8,27.5H836.4M682,1053.8v28.3" class="g0_1"/>
<path d="M836,1081.7h44v-27.5H836v27.5Z" class="g6_1"/>
<path d="M835.6,1054.2h44.8m-44.8,27.5h44.8m-.4,-27.9v28.3M681.6,1100H836.4m-154.8,27.5H836.4M682,1099.6v28.3M835.6,1100h44.8m-44.8,27.5h44.8m-.4,-27.9v28.3" class="g0_1"/>
<path d="M54.6,1155H594.4m-.8,0H792.4m-.8,0h88.8" class="g7_1"/>
</svg>