<?xml version="1.0" encoding="UTF-8" standalone="no"?>
<!DOCTYPE svg PUBLIC "-//W3C//DTD SVG 1.1//EN"
"http://www.w3.org/Graphics/SVG/1.1/DTD/svg11.dtd">
<svg viewBox="0 0 935 1210" version="1.1" xmlns="http://www.w3.org/2000/svg" xmlns:xlink="http://www.w3.org/1999/xlink">
<defs>
<style type="text/css"><![CDATA[
.g0_2{
fill: none;
stroke: #000;
stroke-width: 1.527;
stroke-miterlimit: 10;
}
.g1_2{
fill: none;
stroke: #000;
stroke-width: 0.763;
stroke-miterlimit: 10;
}
.g2_2{
fill: #000;
}
.g3_2{
fill: #D9D9D9;
}
.g4_2{
fill: #FFF;
}
]]></style>
</defs>
<path d="M54.6,55H583.4" class="g0_2"/>
<path d="M583,54.2V70.7m0,-.8V92" class="g1_2"/>
<path d="M582.6,55H880.4" class="g0_2"/>
<path d="M55,110h55V91.7H55V110Z" class="g2_2"/>
<path d="M54.6,91.7H880.4M54.6,110H880.4" class="g1_2"/>
<path d="M682,146.7H836V119.2H682v27.5Z" class="g3_2"/>
<path d="M681.6,119.2H836.4M681.6,146.7H836.4M682,118.8v28.3" class="g1_2"/>
<path d="M836,146.7h44V119.2H836v27.5Z" class="g3_2"/>
<path d="M835.6,119.2h44.8m-44.8,27.5h44.8M880,118.8v28.3" class="g1_2"/>
<path d="M495,183.3H627V155.8H495v27.5Z" class="g3_2"/>
<path d="M495,183.3H627V155.8H495v27.5Zm186.6,9.2H836.4M681.6,220H836.4M682,192.1v28.3M835.6,192.5h44.8M835.6,220h44.8M880,192.1v28.3m-198.4,8.8H836.4M681.6,256.7H836.4M682,228.8v28.3M835.6,229.2h44.8m-44.8,27.5h44.8M880,228.8v28.3M681.6,275H836.4M681.6,302.5H836.4M682,274.6v28.3M835.6,275h44.8m-44.8,27.5h44.8M880,274.6v28.3" class="g1_2"/>
<path d="M682,339.2H836V311.7H682v27.5Z" class="g3_2"/>
<path d="M681.6,311.7H836.4M681.6,339.2H836.4M682,311.3v28.3" class="g1_2"/>
<path d="M836,339.2h44V311.7H836v27.5Z" class="g3_2"/>
<path d="M835.6,311.7h44.8m-44.8,27.5h44.8M880,311.3v28.3" class="g1_2"/>
<path d="M682,375.8H836V348.3H682v27.5Z" class="g3_2"/>
<path d="M681.6,348.3H836.4M681.6,375.8H836.4M682,347.9v28.3" class="g1_2"/>
<path d="M836,375.8h44V348.3H836v27.5Z" class="g3_2"/>
<path d="M835.6,348.3h44.8m-44.8,27.5h44.8M880,347.9v28.3m-198.4,18H836.4M681.6,421.7H836.4M682,393.8v28.3M835.6,394.2h44.8m-44.8,27.5h44.8M880,393.8v28.3" class="g1_2"/>
<path d="M682,458.3H836V430.8H682v27.5Z" class="g3_2"/>
<path d="M681.6,430.8H836.4M681.6,458.3H836.4M682,430.4v28.3" class="g1_2"/>
<path d="M836,458.3h44V430.8H836v27.5Z" class="g3_2"/>
<path d="M835.6,430.8h44.8m-44.8,27.5h44.8M880,430.4v28.3m-198.4,18H836.4M681.6,504.2H836.4M682,476.3v28.3M835.6,476.7h44.8m-44.8,27.5h44.8M880,476.3v28.3" class="g1_2"/>
<path d="M682,540.8H836V513.3H682v27.5Z" class="g3_2"/>
<path d="M681.6,513.3H836.4M681.6,540.8H836.4M682,512.9v28.3" class="g1_2"/>
<path d="M836,540.8h44V513.3H836v27.5Z" class="g3_2"/>
<path d="M835.6,513.3h44.8m-44.8,27.5h44.8M880,512.9v28.3M681.6,550H836.4M681.6,577.5H836.4M682,549.6v28.3M835.6,550h44.8m-44.8,27.5h44.8M880,549.6v28.3" class="g1_2"/>
<path d="M682,614.2H836V586.7H682v27.5Z" class="g3_2"/>
<path d="M681.6,586.7H836.4M681.6,614.2H836.4M682,586.3v28.3" class="g1_2"/>
<path d="M836,614.2h44V586.7H836v27.5Z" class="g3_2"/>
<path d="M835.6,586.7h44.8m-44.8,27.5h44.8M880,586.3v28.3" class="g1_2"/>
<path d="M682,650.8H836V623.3H682v27.5Z" class="g3_2"/>
<path d="M681.6,623.3H836.4M681.6,650.8H836.4M682,622.9v28.3" class="g1_2"/>
<path d="M836,650.8h44V623.3H836v27.5Z" class="g3_2"/>
<path d="M835.6,623.3h44.8m-44.8,27.5h44.8M880,622.9v28.3M681.6,660H836.4M681.6,687.5H836.4M682,659.6v28.3M835.6,660h44.8m-44.8,27.5h44.8M880,659.6v28.3m-451.4,8.8H539.4M428.6,724.2H539.4M429,696.3v28.3M538.6,696.7h44.8m-44.8,27.5h44.8M583,696.3v28.3" class="g1_2"/>
<path d="M649,722.6h15.3V707.4H649v15.2Z" class="g4_2"/>
<path d="M649,722.6h15.3V707.4H649v15.2Z" class="g1_2"/>
<path d="M770,722.6h15.3V707.4H770v15.2Z" class="g4_2"/>
<path d="M770,722.6h15.3V707.4H770v15.2Z" class="g1_2"/>
<path d="M55,751.7h55V733.3H55v18.4Z" class="g2_2"/>
<path d="M54.6,733.3H880.4M54.6,751.7H880.4" class="g1_2"/>
<path d="M168.7,777.6h15.2V762.4H168.7v15.2Z" class="g4_2"/>
<path d="M168.7,777.6h15.2V762.4H168.7v15.2Z" class="g1_2"/>
<path d="M168.7,805.1h15.2V789.9H168.7v15.2Z" class="g4_2"/>
<path d="M168.7,805.1h15.2V789.9H168.7v15.2Zm28.9,47.4h88.8M197.6,880h88.8M198,852.1v28.3m87.6,-27.9h44.8M285.6,880h44.8M330,852.1v28.3M197.6,898.3h88.8m-88.8,27.5h88.8M198,897.9v28.3m87.6,-27.9h44.8m-44.8,27.5h44.8M330,897.9v28.3m-132.4,18h88.8m-88.8,27.5h88.8M198,943.8v28.3m87.6,-27.9h44.8m-44.8,27.5h44.8M330,943.8v28.3M384.6,852.5h88.8M384.6,880h88.8M385,852.1v28.3m87.6,-27.9h44.8M472.6,880h44.8M517,852.1v28.3M384.6,898.3h88.8m-88.8,27.5h88.8M385,897.9v28.3m87.6,-27.9h44.8m-44.8,27.5h44.8M517,897.9v28.3m-132.4,18h88.8m-88.8,27.5h88.8M385,943.8v28.3m87.6,-27.9h44.8m-44.8,27.5h44.8M517,943.8v28.3M571.6,852.5h88.8M571.6,880h88.8M572,852.1v28.3m87.6,-27.9h44.8M659.6,880h44.8M704,852.1v28.3M571.6,898.3h88.8m-88.8,27.5h88.8M572,897.9v28.3m87.6,-27.9h44.8m-44.8,27.5h44.8M704,897.9v28.3m-132.4,18h88.8m-88.8,27.5h88.8M572,943.8v28.3m87.6,-27.9h44.8m-44.8,27.5h44.8M704,943.8v28.3M747.6,852.5h88.8M747.6,880h88.8M748,852.1v28.3m87.6,-27.9h44.8M835.6,880h44.8M880,852.1v28.3M747.6,898.3h88.8m-88.8,27.5h88.8M748,897.9v28.3m87.6,-27.9h44.8m-44.8,27.5h44.8M880,897.9v28.3m-132.4,18h88.8m-88.8,27.5h88.8M748,943.8v28.3m87.6,-27.9h44.8m-44.8,27.5h44.8M880,943.8v28.3m-198.4,8.7H836.4m-154.8,27.5H836.4M682,980.4v28.3M835.6,980.8h44.8m-44.8,27.5h44.8M880,980.4v28.3" class="g1_2"/>
<path d="M54.6,1035.8H781.4m-.8,0h99.8" class="g0_2"/>
</svg>